<?xml version="1.0" encoding="UTF-8"?>
<svg id="_레이어_1" data-name="레이어_1" xmlns="http://www.w3.org/2000/svg" version="1.1" viewBox="0 0 1000 1000">
  <!-- Generator: Adobe Illustrator 30.1.0, SVG Export Plug-In . SVG Version: 2.1.1 Build 136)  -->
  <defs>
    <style>
      .st0 {
        fill: #fff;
      }

      .st1 {
        fill: none;
        stroke: #c5171e;
        stroke-miterlimit: 10;
        stroke-width: 8px;
      }

      .st2 {
        fill: #c5171e;
      }
    </style>
  </defs>
  <g>
    <path class="st2" d="M414.3,239.59c9.19,0,16.46,1.46,21.82,4.36,5.36,2.91,9.34,6.93,11.94,12.06,2.6,5.13,4.32,11.06,5.17,17.8.84,6.74,1.34,13.94,1.49,21.59v90.26l-64.08.23v-85.21c0-.46-.27-1.61-.8-3.45-.54-1.84-2.34-2.76-5.4-2.76s-4.86.92-5.4,2.76c-.54,1.84-.8,2.99-.8,3.45v84.98l-61.1.23v-85.21c0-.46-.27-1.61-.8-3.45-.54-1.84-2.34-2.76-5.4-2.76s-4.86.92-5.4,2.76c-.54,1.84-.8,2.99-.8,3.45v84.98h-67.99v-92.33c0-4.9.04-12.02.11-21.36.08-9.34-.5-18.91-1.72-28.71h58.34c1.84,9.65,2.76,19.6,2.76,29.86h2.07c0-5.97,1.18-11.48,3.56-16.54,2.37-5.05,6.24-9.15,11.6-12.29,5.36-3.14,12.48-4.71,21.36-4.71,9.95,0,17.69,1.42,23.2,4.25,5.51,2.84,9.53,6.78,12.06,11.83,2.53,5.05,4.09,10.87,4.71,17.45h2.07c0-5.97,1.19-11.48,3.56-16.54,2.37-5.05,6.32-9.15,11.83-12.29,5.51-3.14,12.86-4.71,22.05-4.71Z"/>
    <path class="st2" d="M603.1,385.67h-58.8c-.61-2.91-1.11-5.93-1.49-9.07-.39-3.14-.58-6.93-.58-11.37h-2.07c0,3.22-1.11,6.7-3.33,10.45-2.22,3.75-5.78,6.97-10.68,9.65-4.9,2.68-11.48,4.02-19.75,4.02-11.33,0-20.29-1.92-26.87-5.74-6.59-3.82-11.26-8.76-14.01-14.81-2.76-6.05-4.13-12.59-4.13-19.64v-11.03c0-14.7,4.59-25.42,13.78-32.16,9.19-6.74,24.73-10.11,46.63-10.11,3.06,0,6.16.08,9.3.23,3.14.15,6.47.39,9.99.69.3-2.6-.11-4.52-1.26-5.74-1.15-1.22-2.57-1.91-4.25-2.07-2.91-.31-5.71-.58-8.38-.8-2.68-.23-5.32-.34-7.92-.34-12.25,0-22.55,1.46-30.89,4.36-8.35,2.91-14.89,5.74-19.64,8.5l-4.13-49.61c13.47-3.98,26.07-6.89,37.78-8.73,11.71-1.84,22.47-2.76,32.27-2.76,21.13,0,37.47,4.25,49.04,12.75,11.56,8.5,17.34,20.87,17.34,37.09v69.59c.46,9.04,1.15,17.92,2.07,26.64ZM536.49,342.49v-14.47c0-.61-.27-1.8-.8-3.56-.54-1.76-2.34-2.64-5.4-2.64s-4.86.88-5.4,2.64c-.54,1.76-.8,2.95-.8,3.56v14.47c0,.46.27,1.61.8,3.45.53,1.84,2.33,2.76,5.4,2.76s4.86-.92,5.4-2.76c.53-1.84.8-2.99.8-3.45Z"/>
    <path class="st2" d="M609.3,243.27h64.08c.61,4.44.95,9.57,1.03,15.39.08,5.82.11,10.95.11,15.39h2.07c1.38-10.72,5.32-19.14,11.83-25.27,6.51-6.12,15.42-9.19,26.76-9.19,10.25,0,18.49,1.8,24.69,5.4,6.2,3.6,10.91,8.69,14.13,15.27,3.21,6.58,5.4,14.35,6.55,23.31,1.15,8.96,1.72,18.8,1.72,29.51,0,9.96-.69,19.49-2.07,28.6-1.38,9.11-4.06,17.23-8.04,24.35-3.98,7.12-9.84,12.75-17.57,16.88-7.73,4.13-18.03,6.2-30.89,6.2-6.28,0-11.48-.84-15.62-2.53-4.13-1.68-7.12-3.29-8.96-4.82v39.28h-68.22l.23-150.44c0-4.59-.15-9.19-.46-13.78-.31-4.59-.77-9.11-1.38-13.55ZM694.97,330.32v-31.01c0-.61-.27-1.8-.8-3.56-.54-1.76-2.34-2.64-5.4-2.64s-4.86.88-5.4,2.64c-.54,1.76-.8,2.95-.8,3.56v31.01c0,.46.27,1.61.8,3.45.53,1.84,2.33,2.76,5.4,2.76s4.86-.92,5.4-2.76c.53-1.84.8-2.99.8-3.45Z"/>
    <path class="st2" d="M414.3,431.64c9.19,0,16.46,1.46,21.82,4.36,5.36,2.91,9.34,6.93,11.94,12.06,2.6,5.13,4.32,11.06,5.17,17.8.84,6.74,1.34,13.94,1.49,21.59v90.26l-64.08.23v-85.21c0-.46-.27-1.61-.8-3.45-.54-1.84-2.34-2.76-5.4-2.76s-4.86.92-5.4,2.76c-.54,1.84-.8,2.99-.8,3.45v84.98l-61.1.23v-85.21c0-.46-.27-1.61-.8-3.45-.54-1.84-2.34-2.76-5.4-2.76s-4.86.92-5.4,2.76c-.54,1.84-.8,2.99-.8,3.45v84.98h-67.99v-92.33c0-4.9.04-12.02.11-21.36.08-9.34-.5-18.91-1.72-28.71h58.34c1.84,9.65,2.76,19.6,2.76,29.86h2.07c0-5.97,1.18-11.48,3.56-16.54,2.37-5.05,6.24-9.15,11.6-12.29,5.36-3.14,12.48-4.71,21.36-4.71,9.95,0,17.69,1.42,23.2,4.25,5.51,2.84,9.53,6.78,12.06,11.83,2.53,5.05,4.09,10.87,4.71,17.45h2.07c0-5.97,1.19-11.48,3.56-16.54,2.37-5.05,6.32-9.15,11.83-12.29,5.51-3.14,12.86-4.71,22.05-4.71Z"/>
    <path class="st2" d="M603.1,577.71h-58.8c-.61-2.91-1.11-5.93-1.49-9.07-.39-3.14-.58-6.93-.58-11.37h-2.07c0,3.22-1.11,6.7-3.33,10.45-2.22,3.75-5.78,6.97-10.68,9.65-4.9,2.68-11.48,4.02-19.75,4.02-11.33,0-20.29-1.92-26.87-5.74-6.59-3.82-11.26-8.76-14.01-14.81-2.76-6.05-4.13-12.59-4.13-19.64v-11.03c0-14.7,4.59-25.42,13.78-32.15,9.19-6.74,24.73-10.11,46.63-10.11,3.06,0,6.16.08,9.3.23,3.14.15,6.47.39,9.99.69.3-2.6-.11-4.52-1.26-5.74-1.15-1.22-2.57-1.91-4.25-2.07-2.91-.31-5.71-.58-8.38-.8-2.68-.23-5.32-.34-7.92-.34-12.25,0-22.55,1.46-30.89,4.36-8.35,2.91-14.89,5.74-19.64,8.5l-4.13-49.61c13.47-3.98,26.07-6.89,37.78-8.73,11.71-1.84,22.47-2.76,32.27-2.76,21.13,0,37.47,4.25,49.04,12.75,11.56,8.5,17.34,20.87,17.34,37.09v69.59c.46,9.04,1.15,17.92,2.07,26.64ZM536.49,534.53v-14.47c0-.61-.27-1.8-.8-3.56-.54-1.76-2.34-2.64-5.4-2.64s-4.86.88-5.4,2.64c-.54,1.76-.8,2.95-.8,3.56v14.47c0,.46.27,1.61.8,3.45.53,1.84,2.33,2.76,5.4,2.76s4.86-.92,5.4-2.76c.53-1.84.8-2.99.8-3.45Z"/>
    <path class="st2" d="M609.3,435.31h64.08c.61,4.44.95,9.57,1.03,15.39.08,5.82.11,10.95.11,15.39h2.07c1.38-10.72,5.32-19.14,11.83-25.27,6.51-6.12,15.42-9.19,26.76-9.19,10.25,0,18.49,1.8,24.69,5.4,6.2,3.6,10.91,8.69,14.13,15.27,3.21,6.58,5.4,14.35,6.55,23.31,1.15,8.96,1.72,18.8,1.72,29.51,0,9.95-.69,19.49-2.07,28.6-1.38,9.11-4.06,17.23-8.04,24.35-3.98,7.12-9.84,12.75-17.57,16.88-7.73,4.13-18.03,6.2-30.89,6.2-6.28,0-11.48-.84-15.62-2.53-4.13-1.68-7.12-3.29-8.96-4.82v39.28h-68.22l.23-150.44c0-4.59-.15-9.19-.46-13.78-.31-4.59-.77-9.11-1.38-13.55ZM694.97,522.36v-31.01c0-.61-.27-1.8-.8-3.56-.54-1.76-2.34-2.64-5.4-2.64s-4.86.88-5.4,2.64c-.54,1.76-.8,2.95-.8,3.56v31.01c0,.46.27,1.61.8,3.45.53,1.84,2.33,2.76,5.4,2.76s4.86-.92,5.4-2.76c.53-1.84.8-2.99.8-3.45Z"/>
    <path class="st2" d="M414.3,623.68c9.19,0,16.46,1.46,21.82,4.36,5.36,2.91,9.34,6.93,11.94,12.06,2.6,5.13,4.32,11.06,5.17,17.8.84,6.74,1.34,13.94,1.49,21.59v90.26l-64.08.23v-85.21c0-.46-.27-1.61-.8-3.45-.54-1.84-2.34-2.76-5.4-2.76s-4.86.92-5.4,2.76c-.54,1.84-.8,2.99-.8,3.45v84.98l-61.1.23v-85.21c0-.46-.27-1.61-.8-3.45-.54-1.84-2.34-2.76-5.4-2.76s-4.86.92-5.4,2.76c-.54,1.84-.8,2.99-.8,3.45v84.98h-67.99v-92.33c0-4.9.04-12.02.11-21.36.08-9.34-.5-18.91-1.72-28.71h58.34c1.84,9.65,2.76,19.6,2.76,29.86h2.07c0-5.97,1.18-11.48,3.56-16.54,2.37-5.05,6.24-9.15,11.6-12.29,5.36-3.14,12.48-4.71,21.36-4.71,9.95,0,17.69,1.42,23.2,4.25,5.51,2.84,9.53,6.78,12.06,11.83,2.53,5.05,4.09,10.87,4.71,17.45h2.07c0-5.97,1.19-11.48,3.56-16.54,2.37-5.05,6.32-9.15,11.83-12.29,5.51-3.14,12.86-4.71,22.05-4.71Z"/>
    <path class="st2" d="M603.1,769.76h-58.8c-.61-2.91-1.11-5.93-1.49-9.07-.39-3.14-.58-6.93-.58-11.37h-2.07c0,3.22-1.11,6.7-3.33,10.45-2.22,3.75-5.78,6.97-10.68,9.65-4.9,2.68-11.48,4.02-19.75,4.02-11.33,0-20.29-1.92-26.87-5.74-6.59-3.82-11.26-8.76-14.01-14.81-2.76-6.05-4.13-12.59-4.13-19.64v-11.03c0-14.7,4.59-25.42,13.78-32.16,9.19-6.74,24.73-10.11,46.63-10.11,3.06,0,6.16.08,9.3.23,3.14.15,6.47.39,9.99.69.3-2.6-.11-4.52-1.26-5.74-1.15-1.22-2.57-1.91-4.25-2.07-2.91-.31-5.71-.58-8.38-.8-2.68-.23-5.32-.34-7.92-.34-12.25,0-22.55,1.46-30.89,4.36-8.35,2.91-14.89,5.74-19.64,8.5l-4.13-49.61c13.47-3.98,26.07-6.89,37.78-8.73,11.71-1.84,22.47-2.76,32.27-2.76,21.13,0,37.47,4.25,49.04,12.75,11.56,8.5,17.34,20.87,17.34,37.09v69.59c.46,9.04,1.15,17.92,2.07,26.64ZM536.49,726.58v-14.47c0-.61-.27-1.8-.8-3.56-.54-1.76-2.34-2.64-5.4-2.64s-4.86.88-5.4,2.64c-.54,1.76-.8,2.95-.8,3.56v14.47c0,.46.27,1.61.8,3.45.53,1.84,2.33,2.76,5.4,2.76s4.86-.92,5.4-2.76c.53-1.84.8-2.99.8-3.45Z"/>
    <path class="st2" d="M609.3,627.35h64.08c.61,4.44.95,9.57,1.03,15.39.08,5.82.11,10.95.11,15.39h2.07c1.38-10.72,5.32-19.14,11.83-25.27,6.51-6.12,15.42-9.19,26.76-9.19,10.25,0,18.49,1.8,24.69,5.4,6.2,3.6,10.91,8.69,14.13,15.27,3.21,6.58,5.4,14.35,6.55,23.31,1.15,8.96,1.72,18.8,1.72,29.51,0,9.96-.69,19.49-2.07,28.6-1.38,9.11-4.06,17.23-8.04,24.35-3.98,7.12-9.84,12.75-17.57,16.88-7.73,4.13-18.03,6.2-30.89,6.2-6.28,0-11.48-.84-15.62-2.53-4.13-1.68-7.12-3.29-8.96-4.82v39.28h-68.22l.23-150.44c0-4.59-.15-9.19-.46-13.78-.31-4.59-.77-9.11-1.38-13.55ZM694.97,714.4v-31.01c0-.61-.27-1.8-.8-3.56-.54-1.76-2.34-2.64-5.4-2.64s-4.86.88-5.4,2.64c-.54,1.76-.8,2.95-.8,3.56v31.01c0,.46.27,1.61.8,3.45.53,1.84,2.33,2.76,5.4,2.76s4.86-.92,5.4-2.76c.53-1.84.8-2.99.8-3.45Z"/>
  </g>
  <rect class="st2" x="675.8" y="288.63" width="30.63" height="60.75"/>
  <rect class="st2" x="675.8" y="477.91" width="30.63" height="60.75"/>
  <rect class="st2" x="675.8" y="663.18" width="30.63" height="60.75"/>
  <path class="st0" d="M721.54,314.38h0s-.02-.06-.03-.08c0-.01,0-.02-.01-.03h0c-1.13-3.14-1.85-3.39-1.85-3.39,0,5.47-3.86,5.38-3.86,5.38,1.64-16.31-9.13-22.97-9.13-22.97,3.21,6.92-2.63,12.13-2.63,12.13-5.67,5.04-4.85,9.05-4.85,9.05-1.81-.85-1.23-3.5-1.23-3.5-.33.34-1.31,2.3-1.32,2.31h0s0,0,0,0h0c-.7,1.67-1.08,3.51-1.08,5.45,0,7.61,5.97,13.77,13.34,13.77s13.34-6.17,13.34-13.77c0-1.51-.24-2.97-.68-4.33Z"/>
  <path class="st0" d="M727.87,506.64h0s-.03-.09-.04-.13c0-.02-.01-.03-.02-.05h0c-1.69-4.7-2.78-5.08-2.78-5.08,0,8.2-5.8,8.07-5.8,8.07,2.47-24.47-13.69-34.46-13.69-34.46,4.81,10.38-3.95,18.19-3.95,18.19-8.51,7.56-7.28,13.58-7.28,13.58-2.71-1.28-1.85-5.25-1.85-5.25-.49.51-1.97,3.45-1.97,3.46h0s0,0,0,0h0c-1.05,2.51-1.63,5.27-1.63,8.17,0,11.41,8.96,20.66,20,20.66s20-9.25,20-20.66c0-2.27-.36-4.46-1.01-6.5Z"/>
  <path class="st0" d="M734.2,701.98h0c-.02-.06-.04-.11-.06-.17,0-.02-.01-.05-.02-.07h0c-2.26-6.27-3.7-6.78-3.7-6.78,0,10.93-7.73,10.76-7.73,10.76,3.29-32.63-18.25-45.95-18.25-45.95,6.41,13.84-5.26,24.26-5.26,24.26-11.35,10.08-9.7,18.11-9.7,18.11-3.62-1.71-2.47-7-2.47-7-.66.68-2.62,4.6-2.63,4.61h0s0,0,0,0h0c-1.4,3.34-2.17,7.03-2.17,10.9,0,15.21,11.94,27.55,26.67,27.55s26.67-12.33,26.67-27.55c0-3.03-.48-5.94-1.35-8.67Z"/>
  <circle class="st1" cx="497.9" cy="502.61" r="472.95"/>
</svg>